<?xml version="1.0" encoding="utf-8"?>
<!-- Generator: Adobe Illustrator 16.0.4, SVG Export Plug-In . SVG Version: 6.00 Build 0)  -->
<!DOCTYPE svg PUBLIC "-//W3C//DTD SVG 1.1//EN" "http://www.w3.org/Graphics/SVG/1.1/DTD/svg11.dtd">
<svg version="1.1" id="Ebene_1" xmlns="http://www.w3.org/2000/svg" xmlns:xlink="http://www.w3.org/1999/xlink" x="0px" y="0px"
	 width="244.314px" height="71.25px" viewBox="0 0 244.314 71.25" enable-background="new 0 0 244.314 71.25" xml:space="preserve">
<polygon fill="#2DC6D6" points="0,0 0,13.799 18.898,13.799 18.698,66.693 36.297,66.693 36.496,13.799 54.295,13.799 54.295,0 "/>
<path fill="#2DC6D6" d="M98.574,0l-0.198,37.197c0,8.099-0.4,10.799-1.699,13.199c-1.602,2.6-4.899,4.299-8.602,4.299
	c-4.5,0-8.197-2.299-9.599-5.898c-0.9-2.4-1.1-5.4-1.1-13.898L77.477,0H59.879l-0.101,34.497v2.7c0,12.699,0.5,15.699,3.601,20.396
	c4.6,6.999,13.198,10.999,23.697,10.999c13.699,0,23.8-5.697,27.298-15.299c1.301-3.396,1.5-6.299,1.6-16.1L116.073,0H98.574
	L98.574,0z"/>
<polygon fill="#2DC6D6" points="179.44,66.693 179.741,0 162.141,0 162.044,25.797 139.643,25.797 139.743,0 122.146,0 
	121.846,66.693 139.444,66.693 139.643,40.195 161.942,40.195 161.843,66.693 "/>
<polygon fill="#2DC6D6" points="244.014,66.693 244.313,0 226.718,0 226.616,25.797 204.218,25.797 204.317,0 186.719,0 
	186.421,66.693 204.018,66.693 204.218,40.195 226.514,40.195 226.415,66.693 "/>
</svg>
